<?xml version="1.0" encoding="utf-8"?>
<!-- Generator: Adobe Illustrator 16.0.4, SVG Export Plug-In . SVG Version: 6.00 Build 0)  -->
<!DOCTYPE svg PUBLIC "-//W3C//DTD SVG 1.1 Tiny//EN" "http://www.w3.org/Graphics/SVG/1.1/DTD/svg11-tiny.dtd">
<svg version="1.1" baseProfile="tiny" id="Layer_1" xmlns="http://www.w3.org/2000/svg" xmlns:xlink="http://www.w3.org/1999/xlink"
	 x="0px" y="0px" width="841.89px" height="595.28px" viewBox="0 0 841.89 595.28" xml:space="preserve">
<polygon fill="none" stroke="#000000" stroke-miterlimit="10" points="32.719,361.947 54.649,104.93 112.544,104.93 
	189.737,347.035 129.21,361.947 111.228,259.316 75.702,262.825 78.333,357.562 "/>
<polygon fill="none" stroke="#000000" stroke-miterlimit="10" points="180.965,97.035 135.351,423.351 292.368,423.351 
	325.702,368.965 211.667,369.842 248.509,97.035 "/>
<polygon fill="none" stroke="#000000" stroke-miterlimit="10" points="195,39.14 280.088,336.509 438.859,283 402.895,216.333 
	316.93,248.79 285.351,187.824 380.088,133 346.754,77.737 275.702,114.579 252.018,51.421 321.316,17.21 254.649,11.947 "/>
<polygon fill="none" stroke="#000000" stroke-miterlimit="10" points="354.649,407.562 426.579,227.737 281.842,89.14 
	341.491,37.386 465.176,197.035 565.176,52.298 619.562,47.912 489.736,248.79 603.771,395.28 545.877,398.789 465.176,293.526 
	413.421,399.667 "/>
</svg>
