<?xml version="1.0" encoding="utf-8"?>
<!-- Generator: Adobe Illustrator 16.0.4, SVG Export Plug-In . SVG Version: 6.00 Build 0)  -->
<!DOCTYPE svg PUBLIC "-//W3C//DTD SVG 1.1 Tiny//EN" "http://www.w3.org/Graphics/SVG/1.1/DTD/svg11-tiny.dtd">
<svg version="1.1" baseProfile="tiny" id="Layer_1" xmlns="http://www.w3.org/2000/svg" xmlns:xlink="http://www.w3.org/1999/xlink"
	 x="0px" y="0px" width="841.89px" height="595.28px" viewBox="0 0 841.89 595.28" xml:space="preserve">
<polygon fill="#FFFFFF" stroke="#000000" stroke-miterlimit="10" points="24.825,44.403 144.123,44.403 144.123,101.421 
	71.316,117.21 144.123,159.316 144.123,220.719 24.825,217.21 "/>
<polygon fill="none" stroke="#000000" stroke-miterlimit="10" points="95,260.193 178.333,54.053 209.035,50.544 262.544,250.544 
	221.316,253.175 192.368,125.982 178.772,125.105 149.386,256.684 "/>
<polygon fill="none" stroke="#000000" stroke-miterlimit="10" points="278.333,94.403 178.772,263.702 210.79,285.631 
	332.719,107.562 "/>
<polygon fill="none" stroke="#000000" stroke-miterlimit="10" points="302.018,33.877 302.018,268.088 432.72,263.702 
	440.614,226.86 342.368,225.982 347.631,33.877 "/>
<polygon fill="none" stroke="#000000" stroke-miterlimit="10" points="384.474,89.14 384.474,327.737 414.298,327.737 
	414.298,76.86 "/>
<polygon fill="none" stroke="#000000" stroke-miterlimit="10" points="420.945,297.64 420.945,83.877 449.386,83.877 
	511.667,260.193 511.667,83.877 543.246,83.877 543.246,310.193 502.018,306.685 441.491,124.228 453.771,320.72 "/>
</svg>
