<?xml version="1.0" encoding="utf-8"?>
<!-- Generator: Adobe Illustrator 16.0.4, SVG Export Plug-In . SVG Version: 6.00 Build 0)  -->
<!DOCTYPE svg PUBLIC "-//W3C//DTD SVG 1.1 Tiny//EN" "http://www.w3.org/Graphics/SVG/1.1/DTD/svg11-tiny.dtd">
<svg version="1.1" baseProfile="tiny" id="Layer_1" xmlns="http://www.w3.org/2000/svg" xmlns:xlink="http://www.w3.org/1999/xlink"
	 x="0px" y="0px" width="841.89px" height="595.28px" viewBox="0 0 841.89 595.28" xml:space="preserve">
<polygon fill="#FFFFFF" stroke="#000000" stroke-miterlimit="10" points="62.667,77.86 97.754,77.86 97.754,211.193 
	179.333,211.193 179.333,253.298 62.667,253.298 "/>
<polygon fill="none" stroke="#000000" stroke-miterlimit="10" points="131.965,91.018 160.035,91.018 160.035,270.842 
	281.087,270.842 281.087,91.018 310.912,91.018 310.912,297.64 131.965,297.64 "/>
<polygon fill="none" stroke="#000000" stroke-miterlimit="10" points="228.456,102.421 254.772,102.421 254.772,176.982 
	362.667,98.912 362.667,129.614 260.035,204.175 359.02,301.543 359.02,328.736 255.649,226.982 256.526,323.474 228.456,323.474 
	"/>
<polygon fill="none" stroke="#000000" stroke-miterlimit="10" points="330.21,334.877 385.474,153.298 424.947,153.298 
	496.877,319.088 459.158,319.965 420.945,233.123 392.443,233.828 362.667,334.877 "/>
<polygon fill="none" stroke="#000000" stroke-miterlimit="10" points="450.407,127.37 589.003,127.37 589.003,162.458 
	477.6,160.703 477.6,238.773 589.003,238.773 589.003,391.404 454.793,387.896 454.793,360.703 549.529,359.826 549.529,270.352 
	450.407,268.598 "/>
</svg>
