<?xml version="1.0" encoding="utf-8"?>
<!-- Generator: Adobe Illustrator 16.0.4, SVG Export Plug-In . SVG Version: 6.00 Build 0)  -->
<!DOCTYPE svg PUBLIC "-//W3C//DTD SVG 1.1 Tiny//EN" "http://www.w3.org/Graphics/SVG/1.1/DTD/svg11-tiny.dtd">
<svg version="1.1" baseProfile="tiny" id="Layer_1" xmlns="http://www.w3.org/2000/svg" xmlns:xlink="http://www.w3.org/1999/xlink"
	 x="0px" y="0px" width="595.28px" height="841.89px" viewBox="0 0 595.28 841.89" xml:space="preserve">
<polygon fill="#FFFFFF" stroke="#000000" stroke-miterlimit="10" points="73.265,102.506 184.108,97.687 184.108,161.542 
	128.687,202.506 78.084,233.832 26.277,179.614 26.277,127.807 53.988,127.807 "/>
<polygon fill="none" stroke="#000000" stroke-miterlimit="10" points="309.41,97.687 134.711,63.952 134.711,127.807 
	255.193,133.832 "/>
<polygon fill="none" stroke="#000000" stroke-miterlimit="10" points="204.59,185.639 88.928,165.759 26.277,219.374 64.832,308.53 
	184.108,292.868 "/>
<polygon fill="none" stroke="#000000" stroke-miterlimit="10" points="139.53,355.518 147.964,237.145 241.94,233.832 
	237.121,109.735 286.518,50.699 414.229,56.723 379.289,195.277 347.964,277.205 204.59,367.566 "/>
<polygon fill="none" stroke="#000000" stroke-miterlimit="10" points="329.892,404.916 285.313,233.832 335.916,165.759 
	455.192,144.675 462.422,268.771 432.301,349.494 "/>
<polygon fill="none" stroke="#000000" stroke-miterlimit="10" points="115.434,456.723 204.59,314.554 276.879,367.566 
	360.012,324.193 414.229,426.603 285.313,489.253 "/>
</svg>
